<svg xmlns="http://www.w3.org/2000/svg" viewBox="10 10 100 100" fill="none">
  <path fill="#000" d="M75.1269 29.9549C72.4048 27.9225 69.646 26.6145 66.1806 27.5382C59.793 29.2408 52.2749 38.8524 48.4591 44.1134C38.0639 58.4429 29.7264 76.9688 24.9775 94.0176C24.6515 95.1893 24.4053 97.0723 23.8387 98.0467C22.0656 101.098 17.5196 99.6807 17.9293 95.9899C18.1924 93.6163 19.5633 89.7657 20.3216 87.3884C26.1925 68.9809 36.4279 47.6389 48.632 32.6348C55.574 24.1001 65.2288 15.2956 73.927 27.9131C74.0773 28.1311 75.2143 29.8591 75.1269 29.954V29.9549Z"/>
  <path fill="#000" d="M83.2083 43.4858C79.8999 40.8661 76.0107 38.7726 71.6301 39.3768C64.425 40.3709 57.1193 48.588 52.9153 54.1131C44.6916 64.9208 38.5859 78.4525 34.8649 91.5013C34.3519 93.2997 33.9976 95.2063 33.4752 96.9709C32.8635 99.0381 31.0725 100.498 28.8944 99.444C25.9026 97.997 27.5113 94.1698 28.1728 91.7625C31.7932 78.5888 37.7346 64.7968 45.246 53.3971C50.0485 46.1083 59.9786 33.5031 69.1739 32.4103C75.9665 31.6022 80.6206 38.1045 83.2093 43.4858H83.2083Z"/>
  <path fill="#000" d="M58.7789 20.2778L55.9693 22.2125C47.1819 29.7352 40.5941 39.8589 34.9891 49.9055C26.5822 64.9763 20.0103 81.3016 15.6373 98.0196C13.8773 101.225 9.56815 99.7636 10.0352 96.0821C10.3565 93.5507 11.8073 89.5516 12.6173 87.0127C16.8278 73.8089 22.5784 60.4275 29.0365 48.1812C31.5491 43.4173 34.2722 38.5453 37.3335 34.1149C42.2037 27.0704 49.3656 19.3503 58.7789 20.2778Z"/>
  <path fill="#000" d="M90.2568 57.7676L86.6551 55.3095C81.1385 52.1871 75.8878 52.0217 70.0856 54.5578C55.9158 60.75 46.1953 80.7708 42.7571 95.0712C42.3559 96.7409 42.511 98.468 40.8008 99.4104C39.0324 100.385 36.8731 99.4546 36.5527 97.4268C36.3704 96.273 37.2189 93.3695 37.5515 92.1207C41.468 77.3966 50.7657 58.7147 63.7308 50.0823C67.9648 47.2634 73.8272 44.8353 78.983 45.976C84.4808 47.1929 88.2187 52.9115 90.2577 57.7685L90.2568 57.7676Z"/>
  <path fill="#000" d="M109.972 99.0014C109.943 99.0503 109.203 99.4167 109.073 99.4656C104.162 101.317 100.416 94.3135 98.5701 90.8453C95.8949 85.8192 93.574 80.5732 90.9947 75.4935C88.3214 70.2288 85.4884 65.0391 82.6592 59.8589C83.1506 58.5603 84.8138 58.3593 86.0475 58.6421C89.7431 59.4887 92.6832 64.6689 94.4075 67.7594C99.987 77.7628 104.612 88.4154 109.915 98.5748C109.967 98.6941 110.042 98.883 109.973 99.0014H109.972Z"/>
  <path fill="#000" d="M73.6057 57.7917C76.3184 57.5784 79.9746 62.2935 81.4056 64.3156C82.9448 66.4908 84.3552 68.9123 85.6678 71.2351C90.7785 80.28 95.021 89.8042 100.178 98.8256C100.229 99.0455 99.1667 99.5182 98.9524 99.5868C94.6226 100.972 91.0116 93.6877 89.3005 90.6245C84.2941 81.666 80.1042 72.0535 73.6226 64.0187C72.7516 62.939 71.4887 62.0586 71.3712 60.5382C71.266 59.1795 72.2141 57.9007 73.6066 57.7907L73.6057 57.7917Z"/>
  <path fill="#000" d="M64.0731 62.3114C64.8248 61.5212 66.051 61.3859 67.0658 61.648C71.3374 62.7521 76.1455 71.4146 78.1827 75.1497C82.4486 82.9712 86.0869 91.1358 90.5943 98.8257C89.9723 99.6752 88.4961 99.849 87.5255 99.6338C84.6079 98.9883 81.96 94.2074 80.5609 91.7522C76.0243 83.7953 72.2723 74.8368 66.1553 67.9145C65.257 66.8978 63.7339 65.8078 63.5187 64.4435C63.3956 63.6607 63.5149 62.8987 64.074 62.3105L64.0731 62.3114Z"/>
  <path fill="#000" d="M60.918 67.4719C62.8292 67.4212 65.0862 70.0484 66.1969 71.4438C67.813 73.4724 69.2732 75.923 70.5389 78.1894C74.3125 84.9435 77.154 92.2116 81.2217 98.8013C80.2482 100.045 78.3605 99.8377 77.0985 99.1612C73.6952 97.3374 70.0447 88.7613 68.1288 85.2038C66.3284 81.8606 64.4557 78.4892 62.2363 75.4043C61.2422 74.0221 58.5764 71.3385 58.582 69.7487C58.5867 68.4651 59.6748 67.5057 60.917 67.4719H60.918Z"/>
</svg>
