<svg width="31" height="30" viewBox="0 0 31 30" fill="none" xmlns="http://www.w3.org/2000/svg">
<path fill-rule="evenodd" clip-rule="evenodd" d="M0.874994 9.93751V30H7.25001V9.93751H0.874994ZM0.5 3.5625C0.5 5.625 2.00001 7.12501 4.0625 7.12501C6.125 7.12501 7.62501 5.625 7.62501 3.5625C7.62501 1.50001 6.125 0 4.0625 0C2.1875 0 0.5 1.50001 0.5 3.5625ZM24.125 30H30.125V17.625C30.125 11.4375 26.375 9.375 22.8125 9.375C19.625 9.375 17.375 11.4375 16.8125 12.75V9.93751H10.8125V30H17.1875V19.3125C17.1875 16.5 19.0625 15 20.9375 15C22.8125 15 24.125 15.9375 24.125 19.125V30Z" />
</svg>
