<svg width="31" height="24" viewBox="0 0 31 24" fill="none" xmlns="http://www.w3.org/2000/svg">
<path fill-rule="evenodd" clip-rule="evenodd" d="M3.68752 3.93751C3.87498 4.12499 4.06249 4.49999 4.06249 4.87501V18C4.25 18.5625 4.06249 18.9375 3.68752 19.3125L0.5 23.0625V23.625H9.31252V23.0625L6.125 19.3125C5.93749 18.9375 5.74998 18.5625 5.74998 18V6.5625L13.625 23.625H14.375L21.125 6.5625V20.25C21.125 20.625 21.125 20.8125 20.9375 21L18.5 23.4375V24H30.3125V23.4375L28.0625 21.1875C27.875 21 27.875 20.625 27.875 20.4375V3.56249C27.6875 3.18749 27.875 3.00001 28.0625 2.8125L30.5 0.562506V0H22.25L16.25 14.8125L9.49998 0H0.875023V0.562506L3.68752 3.93751Z" />
</svg>
