<svg width="31" height="26" viewBox="0 0 31 26" fill="none" xmlns="http://www.w3.org/2000/svg">
<path fill-rule="evenodd" clip-rule="evenodd" d="M26.9375 4.5625C28.25 4.375 29.375 4.1875 30.5 3.625C29.75 4.9375 28.625 6.0625 27.3125 6.8125C27.6875 15.625 21.3125 25.1875 9.875 25.1875C6.5 25.1875 3.3125 24.0625 0.5 22.375C3.6875 22.75 7.0625 21.8125 9.3125 20.125C6.5 20.125 4.25 18.25 3.5 15.8125C4.4375 16 5.375 15.8125 6.3125 15.625C3.5 14.875 1.4375 12.25 1.4375 9.4375C2.375 9.8125 3.3125 10.1875 4.25 10.1875C1.625 8.3125 0.687501 4.75 2.375 1.9375C5.5625 5.6875 10.0625 8.125 15.125 8.3125C14.1875 4.5625 17.1875 0.8125 21.125 0.8125C22.8125 0.8125 24.5 1.5625 25.625 2.6875C27.125 2.3125 28.4375 1.9375 29.5625 1.1875C29.1875 2.6875 28.25 3.8125 26.9375 4.5625Z" />
</svg>
